<?xml version="1.0" standalone="no"?>
<!DOCTYPE svg PUBLIC "-//W3C//DTD SVG 20010904//EN"
 "http://www.w3.org/TR/2001/REC-SVG-20010904/DTD/svg10.dtd">
<svg version="1.0" xmlns="http://www.w3.org/2000/svg"
 width="435.000000pt" height="435.000000pt" viewBox="0 0 435.000000 435.000000"
 preserveAspectRatio="xMidYMid meet">
<metadata>
Created by potrace 1.11, written by Peter Selinger 2001-2013
</metadata>
<g transform="translate(0.000000,435.000000) scale(0.100000,-0.100000)"
fill="#000000" stroke="none">
<path d="M1900 3999 c-455 -50 -760 -191 -938 -431 -23 -31 -42 -60 -42 -63 0
-4 24 18 54 47 79 79 153 113 241 113 89 0 153 -33 241 -122 106 -108 163
-248 185 -453 22 -212 -6 -445 -127 -1050 -62 -310 -148 -690 -164 -718 -10
-20 -116 81 -191 182 -247 331 -295 780 -124 1144 l34 72 -73 110 c-40 60 -86
134 -102 165 -16 30 -31 55 -34 55 -9 -1 -82 -121 -125 -206 -48 -94 -106
-262 -132 -384 -14 -66 -18 -129 -18 -280 0 -213 10 -280 67 -460 84 -264 267
-526 487 -700 45 -35 81 -65 81 -68 0 -12 -64 -94 -99 -125 -75 -68 -244 -134
-410 -161 -103 -17 -170 -44 -199 -81 -29 -37 -28 -71 4 -113 62 -80 239 -121
529 -122 195 0 258 10 350 55 89 44 170 132 248 271 48 85 329 645 393 780
372 802 590 1450 629 1877 22 238 22 361 2 429 -34 114 -123 194 -249 223 -87
20 -389 29 -518 14z"/>
<path d="M1104 3590 c-62 -25 -143 -101 -173 -163 -64 -132 -42 -314 62 -511
51 -98 177 -234 286 -310 89 -62 237 -144 245 -135 10 9 43 173 62 299 22 150
15 318 -16 410 -71 212 -159 349 -253 396 -69 36 -146 40 -213 14z"/>
<path d="M2716 3342 c-10 -87 -20 -173 -22 -192 -4 -33 0 -38 62 -85 202 -153
361 -411 407 -660 13 -67 16 -72 182 -282 l170 -214 9 38 c5 21 10 124 10 228
1 163 -2 206 -22 299 -85 397 -301 717 -637 943 -33 22 -78 49 -100 61 l-41
20 -18 -156z"/>
<path d="M2601 2739 c-56 -220 -85 -310 -183 -557 -44 -112 -79 -205 -77 -207
2 -1 81 -53 174 -115 213 -141 465 -320 465 -329 0 -5 -29 -42 -64 -83 -148
-174 -349 -299 -570 -357 -115 -30 -284 -45 -380 -34 l-79 10 -79 -165 c-43
-90 -78 -166 -76 -168 2 -1 55 -10 118 -20 221 -32 488 -7 697 67 257 91 513
271 665 469 32 41 37 37 66 -42 41 -111 38 -238 -9 -362 -10 -29 -51 -96 -89
-150 -75 -104 -89 -140 -70 -175 44 -83 208 -79 334 8 62 43 89 79 126 168 53
127 126 263 183 338 29 39 59 85 66 102 17 41 16 128 -2 179 -51 142 -454 710
-881 1239 -115 143 -225 281 -245 307 -20 26 -38 47 -41 47 -3 1 -25 -76 -49
-170z"/>
</g>
</svg>
